GIL04_free3_RRA_states
nRows=8
nColumns=47

# SIMM Motion File Header:
name GIL04_free3_RRA_states
datacolumns 47
datarows 8
otherdata 1
range 0.83733000000000057000 0.84083000000000052000
endheader
time	pelvis_tx	pelvis_ty	pelvis_tz	pelvis_tilt	pelvis_list	pelvis_rotation	hip_flexion_r	hip_adduction_r	hip_rotation_r	knee_angle_r	ankle_angle_r	subtalar_angle_r	mtp_angle_r	hip_flexion_l	hip_adduction_l	hip_rotation_l	knee_angle_l	ankle_angle_l	subtalar_angle_l	mtp_angle_l	lumbar_extension	lumbar_bending	lumbar_rotation	pelvis_tx_u	pelvis_ty_u	pelvis_tz_u	pelvis_tilt_u	pelvis_list_u	pelvis_rotation_u	hip_flexion_r_u	hip_adduction_r_u	hip_rotation_r_u	knee_angle_r_u	ankle_angle_r_u	subtalar_angle_r_u	mtp_angle_r_u	hip_flexion_l_u	hip_adduction_l_u	hip_rotation_l_u	knee_angle_l_u	ankle_angle_l_u	subtalar_angle_l_u	mtp_angle_l_u	lumbar_extension_u	lumbar_bending_u	lumbar_rotation_u
      0.83733000000000057000	      1.95710765675769990000	      0.74386486954445719000	     -0.18372094922979210000	     -1.62767099680974180000	     -2.64101315800598300000	      1.19543529891585450000	      9.70008456491172670000	      8.67454999953226040000	      0.23349414224839266000	    -16.21644655567141100000	      8.41695951220969010000	     -0.00000000000005668436	      0.00000000000005193983	     18.99298541118328000000	     -5.37826920003351820000	     -7.86014120490451430000	    -57.60908068901247200000	     -3.14353378630823780000	      0.00000000000064031452	     -0.00000000000036141520	     -3.95865406125869510000	      3.06406488471536110000	      8.31137593625415680000	      0.99918959434065890000	      0.12232309301846706000	      0.09350122517210884800	     14.95408286900123700000	     27.98442739538426200000	    -16.24187028854674300000	   -159.02997189649125000000	    -22.84449437408159900000	    -27.41216448165067700000	    107.50000725192412000000	     29.77886132672530200000	     -0.00000000000069590470	      0.00000000000099474635	    122.85989102021007000000	     52.29113448351068200000	    139.53053953732052000000	    162.35228728883280000000	    114.40923545015634000000	      0.00000000000129405482	     -0.00000000000091199032	    -34.41517787067090200000	    -64.57783853519376300000	     64.44440303198484800000
      0.83783000000000052000	      1.95760723272662270000	      0.74392573205528478000	     -0.18367424782101896000	     -1.62019375635880270000	     -2.62704107862161470000	      1.18728841617685750000	      9.62056438443953790000	      8.66312434363238640000	      0.21978172365122359000	    -16.16266719816449900000	      8.43181385037147810000	     -0.00000000000005703157	      0.00000000000005244664	     19.05424496825510500000	     -5.35214292776335120000	     -7.79034972587742040000	    -57.52743676676689000000	     -3.08652733300572280000	      0.00000000000064096184	     -0.00000000000036187143	     -3.97586072586670050000	      3.03181019600592800000	      8.34360201103158870000	      0.99911423647212327000	      0.12112564106935957000	      0.09330289276539643900	     14.95458937435072900000	     27.90373615591608600000	    -16.34591526323740900000	   -159.05032053372483000000	    -22.85776795002586000000	    -27.43518226839971100000	    107.61697373638891000000	     29.63871374546010500000	     -0.00000000000070163018	      0.00000000000106005564	    122.17883428874460000000	     52.21311840851264900000	    139.63197597397036000000	    164.22213510609268000000	    113.61837282312594000000	      0.00000000000129505636	     -0.00000000000091291622	    -34.41108194663754500000	    -64.44000617895245900000	     64.45965705671037000000
      0.83833000000000057000	      1.95810677094172440000	      0.74398599386724518000	     -0.18362764787195143000	     -1.61271670394534270000	     -2.61310958618522270000	      1.17908914738150730000	      9.54103468652214740000	      8.65169259813498750000	      0.20606127136706687000	    -16.10883003818339500000	      8.44659839787830790000	     -0.00000000000005738672	      0.00000000000005298719	     19.11516476323927100000	     -5.32605692638295110000	     -7.72051262498057070000	    -57.44485983070816800000	     -3.02991362915042430000	      0.00000000000064160931	     -0.00000000000036232825	     -3.99306473643094110000	      2.99962580097374950000	      8.37583533686153640000	      0.99903856403234148000	      0.11992028095708109000	      0.09309535104796655400	     14.95331683237851500000	     27.82205897638110100000	    -16.45137775795204500000	   -159.06801630047963000000	    -22.86884213787096300000	    -27.44433155829916900000	    107.73120255649413000000	     29.49959707603581500000	     -0.00000000000071965100	      0.00000000000110023763	    121.50088497062055000000	     52.13003388930803100000	    139.71303580586144000000	    166.08431980590689000000	    112.83821718288328000000	      0.00000000000129441566	     -0.00000000000091459853	    -34.40454541958354200000	    -64.29663931811289500000	     64.47337240367343700000
      0.83883000000000052000	      1.95860627125193590000	      0.74404565102224729000	     -0.18358115400309341000	     -1.60524073202374520000	     -2.59921918058049560000	      1.17083680668521930000	      9.46149680493510380000	      8.64025586661946930000	      0.19233970840733058000	    -16.05493645418289700000	      8.46131362669537700000	     -0.00000000000005774837	      0.00000000000005352792	     19.17574637043610500000	     -5.30001373308634700000	     -7.65064010400103370000	    -57.36135373028194800000	     -2.97368734484427180000	      0.00000000000064225620	     -0.00000000000036278539	     -4.01026486521977970000	      2.96751447413785920000	      8.40807511279567170000	      0.99896265936817452000	      0.11870703841476121000	      0.09287861056344953700	     14.95028934033633100000	     27.73941622421613600000	    -16.55823026026658300000	   -159.08309132443725000000	    -22.87772563600963200000	    -27.43958323067769500000	    107.84267989976578000000	     29.36155519958207400000	     -0.00000000000071508286	      0.00000000000107255949	    120.82603984056674000000	     52.04191419111931100000	    139.77361216242244000000	    167.93880214963144000000	    112.06868840346257000000	      0.00000000000129407534	     -0.00000000000091612103	    -34.39557250511845200000	    -64.14776786042445200000	     64.48546362598865800000
      0.83933000000000058000	      1.95910573357609730000	      0.74410469959613890000	     -0.18353477079360508000	     -1.59776670302541920000	     -2.58537032774562190000	      1.16253069067412330000	      9.38195202654247670000	      8.62881523609592800000	      0.17862400882645660000	    -16.00098781896749500000	      8.47596013548027830000	     -0.00000000000005809960	      0.00000000000005406321	     19.23599132003220500000	     -5.27401584585511870000	     -7.58074244441005970000	    -57.27692231884567800000	     -2.91784318300154450000	      0.00000000000064290290	     -0.00000000000036324269	     -4.02745990360593980000	      2.93547894591221190000	      8.44032051492014550000	      0.99888660485081293000	      0.11748594029191289000	      0.09265267703553149700	     14.94553134341341000000	     27.65582683885148900000	    -16.66644133415056200000	   -159.09557828332862000000	    -22.88442748674435400000	    -27.42091062936885500000	    107.95139297520745000000	     29.22460712850535100000	     -0.00000000000069944070	      0.00000000000104376792	    120.15429722478839000000	     51.94879263231018700000	    139.81359871126642000000	    169.78554048334604000000	    111.30970704807937000000	      0.00000000000129236239	     -0.00000000000091210744	    -34.38416766054162100000	    -63.99341974351785500000	     64.49584146509822300000
      0.83983000000000052000	      1.95960515784595900000	      0.74416313565772496000	     -0.18348850285560508000	     -1.59029548499662840000	     -2.57156350813636210000	      1.15417014366632410000	      9.30240165245064790000	      8.61737180104340440000	      0.16492112136746370000	    -15.94698552393849400000	      8.49053842330856940000	     -0.00000000000005845303	      0.00000000000005459414	     19.29590118367070800000	     -5.24806576824356700000	     -7.51082995370124880000	    -57.19156948607165000000	     -2.86237589489519410000	      0.00000000000064354897	     -0.00000000000036369889	     -4.04464862839572530000	      2.90352196181320110000	      8.47257065451107390000	      0.99881048546070661000	      0.11625701484372795000	      0.09241756622039062900	     14.93906748825322800000	     27.57131112905238600000	    -16.77598212449024800000	   -159.10551049109125000000	    -22.88895793928071500000	    -27.38829679732891600000	    108.05732964582045000000	     29.08879528738042800000	     -0.00000000000068669680	      0.00000000000106450134	    119.48565157907272000000	     51.85070444676693300000	    139.83289494604639000000	    171.62449877187242000000	    110.56118406294210000000	      0.00000000000129152104	     -0.00000000000091288787	    -34.37033592765930500000	    -63.83362723353479900000	     64.50442052858127800000
      0.84033000000000058000	      1.96010454406490190000	      0.74422095531107502000	     -0.18344235475514306000	     -1.58282791567860870000	     -2.55779916786002430000	      1.14575449236009020000	      9.22284693618858850000	      8.60592663827850220000	      0.15123803794358517000	    -15.89293095387508000000	      8.50504912326418070000	     -0.00000000000005879913	      0.00000000000005514315	     19.35547748695075000000	     -5.22216596330417020000	     -7.44091301447423350000	    -57.10529912276425100000	     -2.80728027075774070000	      0.00000000000064419515	     -0.00000000000036415515	     -4.06182983593112560000	      2.87164622104153230000	      8.50482462079432540000	      0.99873438625354494000	      0.11502029151574902000	      0.09217328913536797200	     14.93092280711234400000	     27.48588803655136600000	    -16.88681993664583900000	   -159.11292188808554000000	    -22.89132760083161600000	    -27.34172738635859900000	    108.16047884078230000000	     28.95413783348288200000	     -0.00000000000071778822	      0.00000000000112367852	    118.82009876050049000000	     51.74768502085214500000	    139.83140091216853000000	    173.45563865043999000000	    109.82303108778783000000	      0.00000000000129397980	     -0.00000000000091163461	    -34.35408263775936900000	    -63.66842069505906200000	     64.51111169004616400000
      0.84083000000000052000	      1.96060389225014990000	      0.74427815465446567000	     -0.18339633109069431000	     -1.57536483813549080000	     -2.54407776796351600000	      1.13728311252838890000	      9.14328914495515480000	      8.59448083161997190000	      0.13758172076541458000	    -15.83882551141816300000	      8.51949276047911040000	     -0.00000000000005916137	      0.00000000000005570731	     19.41472179644229400000	     -5.19631889891675950000	     -7.37100203355814370000	    -57.01811515556497800000	     -2.75255115195885570000	      0.00000000000064484201	     -0.00000000000036461098	     -4.07900230841468940000	      2.83985443770872690000	      8.53708143737136640000	      0.99865839476472207000	      0.11377580112058104000	      0.09191986672801681600	     14.92112249524923600000	     27.39957781062997100000	    -16.99892456778157500000	   -159.11784697998763000000	    -22.89154826967280700000	    -27.28119761227072000000	    108.26083010016376000000	     28.82067573889678200000	     -0.00000000000074305801	      0.00000000000111445317	    118.15763090475819000000	     51.63977155645600400000	    139.80902247214516000000	    175.27892728343247000000	    109.09515014338619000000	      0.00000000000129252099	     -0.00000000000091148006	    -34.33541366203838400000	    -63.49783474980526400000	     64.51582960619764200000
